# xmcd CD database file
#
# Track frame offsets:
#	150
#	12198
#	27655
#	40382
#	49208
#	56588
#	75675
#	94218
#	103166
#	118512
#	131984
#	144763
#
# Disc length: 2244 seconds
#
# Revision: 2
# Processed by: cddbd v1.5.1PL0 Copyright (c) Steve Scherf et al.
# Submitted via: CDex 1.60beta1
#
DISCID=a608c20c
DTITLE=岸部眞明 - TRUTH
DYEAR=1900
DGENRE=Instrumental
TTITLE0=Kichen Helper Blues
TTITLE1=こ鹿と少年
TTITLE2=Stream
TTITLE3=Morning glory
TTITLE4=Beat Time
TTITLE5=揚子江
TTITLE6=Snowfall
TTITLE7=幻想の森
TTITLE8=Inspiration
TTITLE9=Le solitaire
TTITLE10=「おやすみ」という前に
TTITLE11=Truth
EXTD=
EXTT0=
EXTT1=
EXTT2=
EXTT3=
EXTT4=
EXTT5=
EXTT6=
EXTT7=
EXTT8=
EXTT9=
EXTT10=
EXTT11=
PLAYORDER=
